<svg width="112" height="57" viewBox="0 0 112 57" fill="none" xmlns="http://www.w3.org/2000/svg">
<path d="M10.02 36.72C9.52 36.64 9.02 36.55 8.52 36.45C8.04 36.37 7.6 36.23 7.2 36.03C6.8 35.85 6.46 35.59 6.18 35.25C5.9 34.89 5.73 34.41 5.67 33.81C5.93 32.17 6.42 30.48 7.14 28.74C7.86 26.98 8.69 25.27 9.63 23.61C10.59 21.95 11.61 20.38 12.69 18.9C13.77 17.42 14.81 16.12 15.81 15C14.33 15.28 12.95 15.68 11.67 16.2C10.41 16.7 9.3 17.29 8.34 17.97C7.4 18.63 6.64 19.38 6.06 20.22C5.5 21.04 5.18 21.91 5.1 22.83C4.68 22.83 4.28 22.83 3.9 22.83C3.54 22.81 3.22 22.78 2.94 22.74C2.4 22.64 1.92 22.48 1.5 22.26C1.08 22.02 0.75 21.71 0.51 21.33C0.27 20.95 0.14 20.5 0.12 19.98C0.1 19.46 0.21 18.85 0.45 18.15C0.69 17.49 1.09 16.87 1.65 16.29C2.23 15.69 2.92 15.14 3.72 14.64C4.54 14.12 5.45 13.65 6.45 13.23C7.47 12.81 8.54 12.44 9.66 12.12C10.78 11.8 11.93 11.54 13.11 11.34C14.29 11.12 15.46 10.96 16.62 10.86C17.3 10.8 18.09 10.76 18.99 10.74C19.89 10.7 20.79 10.73 21.69 10.83C22.61 10.93 23.47 11.13 24.27 11.43C25.07 11.71 25.71 12.13 26.19 12.69C25.89 13.11 25.59 13.68 25.29 14.4C24.99 15.1 24.69 15.89 24.39 16.77C24.11 17.65 23.84 18.58 23.58 19.56C23.34 20.52 23.12 21.46 22.92 22.38C22.72 23.3 22.56 24.16 22.44 24.96C22.32 25.76 22.24 26.43 22.2 26.97C22.6 26.31 23.08 25.55 23.64 24.69C24.2 23.81 24.81 22.89 25.47 21.93C26.13 20.97 26.82 20 27.54 19.02C28.26 18.04 28.97 17.11 29.67 16.23C30.37 15.35 31.05 14.55 31.71 13.83C32.37 13.11 32.97 12.53 33.51 12.09C33.85 12.07 34.29 12.1 34.83 12.18C35.39 12.24 35.93 12.36 36.45 12.54C36.97 12.72 37.41 12.95 37.77 13.23C38.15 13.49 38.34 13.8 38.34 14.16C38 14.5 37.61 15.14 37.17 16.08C36.73 17.02 36.28 18.15 35.82 19.47C35.36 20.79 34.9 22.23 34.44 23.79C34 25.35 33.59 26.92 33.21 28.5C32.85 30.08 32.54 31.61 32.28 33.09C32.02 34.55 31.85 35.84 31.77 36.96C31.39 37 31.05 37.03 30.75 37.05C30.45 37.07 30.23 37.08 30.09 37.08C29.61 37.08 29.19 37.04 28.83 36.96C28.47 36.88 28.14 36.76 27.84 36.6C27.56 36.46 27.28 36.28 27 36.06C26.74 35.84 26.46 35.58 26.16 35.28C26.44 33.36 26.78 31.42 27.18 29.46C27.58 27.48 28.11 25.46 28.77 23.4C27.35 25.3 26.11 26.96 25.05 28.38C24.01 29.8 23.1 31.14 22.32 32.4C21.9 32.58 21.44 32.7 20.94 32.76C20.44 32.82 19.95 32.82 19.47 32.76C18.99 32.68 18.55 32.53 18.15 32.31C17.75 32.07 17.45 31.75 17.25 31.35C17.31 30.59 17.37 29.67 17.43 28.59C17.51 27.51 17.6 26.4 17.7 25.26C17.8 24.12 17.91 23.03 18.03 21.99C18.15 20.95 18.27 20.09 18.39 19.41C17.77 20.11 17.14 20.92 16.5 21.84C15.86 22.76 15.25 23.74 14.67 24.78C14.11 25.8 13.58 26.86 13.08 27.96C12.6 29.06 12.19 30.14 11.85 31.2C11.53 32.24 11.3 33.25 11.16 34.23C11.02 35.19 11.01 36.06 11.13 36.84L10.02 36.72ZM37.8881 22.23C37.9681 21.99 38.1681 21.79 38.4881 21.63C38.8281 21.47 39.2181 21.35 39.6581 21.27C40.0981 21.19 40.5581 21.15 41.0381 21.15C41.5181 21.15 41.9381 21.21 42.2981 21.33C42.6581 21.43 42.9281 21.59 43.1081 21.81C43.2881 22.01 43.2981 22.27 43.1381 22.59C42.9381 22.93 42.6581 23.42 42.2981 24.06C41.9581 24.68 41.6081 25.37 41.2481 26.13C40.8881 26.87 40.5681 27.63 40.2881 28.41C40.0081 29.19 39.8381 29.89 39.7781 30.51C39.6381 31.53 39.6781 32.1 39.8981 32.22C40.1381 32.32 40.5181 31.89 41.0381 30.93C41.8581 29.51 42.5681 28.08 43.1681 26.64C43.7881 25.2 44.4481 23.78 45.1481 22.38C45.2481 22.14 45.4581 21.95 45.7781 21.81C46.1181 21.65 46.4881 21.53 46.8881 21.45C47.3081 21.37 47.7381 21.34 48.1781 21.36C48.6181 21.36 49.0081 21.4 49.3481 21.48C49.6881 21.56 49.9481 21.69 50.1281 21.87C50.3081 22.03 50.3381 22.23 50.2181 22.47C50.0381 22.85 49.7981 23.35 49.4981 23.97C49.1981 24.57 48.8981 25.22 48.5981 25.92C48.2981 26.62 48.0081 27.33 47.7281 28.05C47.4681 28.77 47.2681 29.43 47.1281 30.03C47.0081 30.53 46.9581 30.94 46.9781 31.26C47.0181 31.56 47.0981 31.75 47.2181 31.83C47.3581 31.89 47.5381 31.84 47.7581 31.68C47.9781 31.52 48.2181 31.22 48.4781 30.78C48.6181 30.6 48.7781 30.36 48.9581 30.06C49.1581 29.74 49.3581 29.42 49.5581 29.1C49.7581 28.76 49.9481 28.44 50.1281 28.14C50.3081 27.82 50.4681 27.56 50.6081 27.36C50.8281 26.86 51.1181 26.55 51.4781 26.43C51.8581 26.29 52.1981 26.27 52.4981 26.37C52.8181 26.45 53.0581 26.62 53.2181 26.88C53.3981 27.14 53.3981 27.42 53.2181 27.72C52.8581 28.32 52.5481 28.85 52.2881 29.31C52.0481 29.77 51.8181 30.21 51.5981 30.63C51.3781 31.03 51.1481 31.43 50.9081 31.83C50.6881 32.23 50.4081 32.67 50.0681 33.15C49.7681 33.57 49.4081 34.01 48.9881 34.47C48.5681 34.93 48.0881 35.33 47.5481 35.67C47.0281 35.99 46.4681 36.2 45.8681 36.3C45.2681 36.4 44.6481 36.3 44.0081 36C43.5081 35.72 43.1281 35.36 42.8681 34.92C42.6281 34.48 42.4681 34.03 42.3881 33.57C42.0881 33.95 41.7481 34.33 41.3681 34.71C40.9881 35.07 40.5581 35.39 40.0781 35.67C39.6181 35.93 39.1181 36.11 38.5781 36.21C38.0381 36.33 37.4681 36.33 36.8681 36.21C36.3681 36.07 35.9481 35.83 35.6081 35.49C35.2481 35.13 34.9681 34.74 34.7681 34.32C34.5481 33.9 34.3981 33.47 34.3181 33.03C34.2181 32.59 34.1881 32.19 34.2281 31.83C34.2481 31.09 34.3981 30.29 34.6781 29.43C34.9581 28.55 35.2881 27.68 35.6681 26.82C36.0481 25.96 36.4381 25.14 36.8381 24.36C37.2581 23.56 37.6081 22.85 37.8881 22.23ZM50.0095 27.15C50.6695 25.51 51.3095 23.96 51.9295 22.5C52.5495 21.02 53.1495 19.67 53.7295 18.45C54.3095 17.23 54.8495 16.15 55.3495 15.21C55.8495 14.25 56.3095 13.45 56.7295 12.81C56.8495 12.67 57.1695 12.56 57.6895 12.48C58.2095 12.38 58.7595 12.33 59.3395 12.33C59.9395 12.33 60.4895 12.38 60.9895 12.48C61.4895 12.56 61.7795 12.71 61.8595 12.93C61.7995 13.17 61.6795 13.49 61.4995 13.89C61.3195 14.29 61.0995 14.75 60.8395 15.27C60.5795 15.79 60.2895 16.36 59.9695 16.98C59.6495 17.58 59.3095 18.21 58.9495 18.87C57.1895 22.23 55.5995 25.76 54.1795 29.46C54.0195 29.82 53.8995 30.22 53.8195 30.66C53.7395 31.08 53.7295 31.42 53.7895 31.68C53.8495 31.94 53.9895 32.06 54.2095 32.04C54.4295 32.02 54.7695 31.74 55.2295 31.2C55.4695 30.9 55.7295 30.56 56.0095 30.18C56.3095 29.78 56.5895 29.38 56.8495 28.98C57.1095 28.56 57.3495 28.17 57.5695 27.81C57.8095 27.43 57.9895 27.12 58.1095 26.88C58.3895 26.34 58.7095 26.01 59.0695 25.89C59.4495 25.75 59.7795 25.75 60.0595 25.89C60.3395 26.01 60.5395 26.24 60.6595 26.58C60.7795 26.92 60.7295 27.3 60.5095 27.72C59.8895 28.86 59.3695 29.78 58.9495 30.48C58.5495 31.16 58.1695 31.75 57.8095 32.25C57.5095 32.69 57.1895 33.15 56.8495 33.63C56.5295 34.09 56.1595 34.51 55.7395 34.89C55.3395 35.27 54.8895 35.59 54.3895 35.85C53.8895 36.09 53.3295 36.21 52.7095 36.21C51.6695 36.07 50.8995 35.67 50.3995 35.01C49.8795 34.35 49.5495 33.58 49.4095 32.7C49.2495 31.8 49.2395 30.86 49.3795 29.88C49.5195 28.88 49.7295 27.97 50.0095 27.15ZM65.1938 21.9C65.6338 21.72 66.1638 21.55 66.7838 21.39C67.4238 21.23 68.0538 21.15 68.6738 21.15C69.3138 21.13 69.8938 21.23 70.4138 21.45C70.9538 21.65 71.3438 22.03 71.5838 22.59C71.9038 23.61 71.9538 24.69 71.7338 25.83C71.5138 26.97 71.1238 28.08 70.5638 29.16C70.0038 30.24 69.3138 31.26 68.4938 32.22C67.6938 33.18 66.8638 34 66.0038 34.68C65.1438 35.34 64.3038 35.82 63.4838 36.12C62.6838 36.42 61.9938 36.46 61.4138 36.24C61.1538 36.16 60.9138 36.1 60.6938 36.06C60.4938 36.04 60.2838 35.96 60.0638 35.82C59.9238 36.48 59.8038 37.16 59.7038 37.86C59.6038 38.56 59.5338 39.26 59.4938 39.96C59.4538 40.66 59.4638 41.35 59.5238 42.03C59.5838 42.73 59.7038 43.39 59.8838 44.01C59.4038 44.01 58.8938 44 58.3537 43.98C57.7937 43.96 57.2637 43.89 56.7637 43.77C56.2437 43.67 55.7737 43.49 55.3537 43.23C54.9337 42.99 54.6237 42.64 54.4237 42.18C54.3837 41.26 54.4937 40.12 54.7537 38.76C54.9937 37.42 55.3237 36 55.7437 34.5C56.1637 33 56.6437 31.49 57.1837 29.97C57.7037 28.45 58.2437 27.06 58.8038 25.8C59.3638 24.54 59.8938 23.48 60.3938 22.62C60.9138 21.76 61.3538 21.22 61.7138 21C62.0938 20.94 62.6138 20.91 63.2738 20.91C63.9338 20.91 64.6738 20.96 65.4938 21.06C65.4538 21.14 65.4038 21.28 65.3438 21.48C65.2838 21.66 65.2338 21.8 65.1938 21.9ZM61.9538 28.41C61.7538 28.85 61.5638 29.38 61.3838 30C61.2238 30.62 61.1938 31.29 61.2938 32.01C61.4138 32.83 61.6338 33.23 61.9538 33.21C62.2938 33.17 62.6838 32.91 63.1238 32.43C63.5638 31.99 63.9838 31.5 64.3838 30.96C64.8038 30.42 65.1638 29.86 65.4638 29.28C65.7838 28.68 66.0338 28.07 66.2138 27.45C66.3938 26.81 66.4738 26.19 66.4538 25.59C66.4338 25.21 66.3638 24.92 66.2438 24.72C66.1438 24.52 66.0038 24.39 65.8238 24.33C65.6438 24.27 65.4538 24.27 65.2538 24.33C65.0538 24.39 64.8538 24.49 64.6538 24.63C64.3138 24.85 64.0038 25.13 63.7238 25.47C63.4438 25.79 63.1838 26.13 62.9438 26.49C62.7238 26.85 62.5238 27.2 62.3438 27.54C62.1838 27.88 62.0538 28.17 61.9538 28.41ZM71.865 27.15C72.525 25.51 73.165 23.96 73.785 22.5C74.405 21.02 75.005 19.67 75.585 18.45C76.165 17.23 76.705 16.15 77.205 15.21C77.705 14.25 78.165 13.45 78.585 12.81C78.705 12.67 79.025 12.56 79.545 12.48C80.065 12.38 80.615 12.33 81.195 12.33C81.795 12.33 82.345 12.38 82.845 12.48C83.345 12.56 83.635 12.71 83.715 12.93C83.655 13.17 83.535 13.49 83.355 13.89C83.175 14.29 82.955 14.75 82.695 15.27C82.435 15.79 82.145 16.36 81.825 16.98C81.505 17.58 81.165 18.21 80.805 18.87C79.045 22.23 77.455 25.76 76.035 29.46C75.875 29.82 75.755 30.22 75.675 30.66C75.595 31.08 75.585 31.42 75.645 31.68C75.705 31.94 75.845 32.06 76.065 32.04C76.285 32.02 76.625 31.74 77.085 31.2C77.325 30.9 77.585 30.56 77.865 30.18C78.165 29.78 78.445 29.38 78.705 28.98C78.965 28.56 79.205 28.17 79.425 27.81C79.665 27.43 79.845 27.12 79.965 26.88C80.245 26.34 80.565 26.01 80.925 25.89C81.305 25.75 81.635 25.75 81.915 25.89C82.195 26.01 82.395 26.24 82.515 26.58C82.635 26.92 82.585 27.3 82.365 27.72C81.745 28.86 81.225 29.78 80.805 30.48C80.405 31.16 80.025 31.75 79.665 32.25C79.365 32.69 79.045 33.15 78.705 33.63C78.385 34.09 78.015 34.51 77.595 34.89C77.195 35.27 76.745 35.59 76.245 35.85C75.745 36.09 75.185 36.21 74.565 36.21C73.525 36.07 72.755 35.67 72.255 35.01C71.735 34.35 71.405 33.58 71.265 32.7C71.105 31.8 71.095 30.86 71.235 29.88C71.375 28.88 71.585 27.97 71.865 27.15ZM84.6192 26.88C84.1392 27.44 83.7592 28.02 83.4792 28.62C83.1992 29.2 82.9892 29.75 82.8492 30.27C82.7092 30.77 82.6492 31.22 82.6692 31.62C82.6892 32 82.7592 32.27 82.8792 32.43C82.9592 32.57 83.1292 32.53 83.3892 32.31C83.6492 32.09 83.9492 31.77 84.2892 31.35C84.6492 30.91 85.0392 30.4 85.4592 29.82C85.8792 29.22 86.2792 28.61 86.6592 27.99C87.0592 27.35 87.4292 26.74 87.7692 26.16C88.1292 25.56 88.4292 25.05 88.6692 24.63C88.8492 24.25 88.8092 24 88.5492 23.88C88.3092 23.74 88.0692 23.73 87.8292 23.85C87.4892 24.01 87.0392 24.33 86.4792 24.81C85.9392 25.27 85.3192 25.96 84.6192 26.88ZM86.9292 21.3C87.2492 21.3 87.5992 21.34 87.9792 21.42C88.3792 21.48 88.7492 21.59 89.0892 21.75C89.4492 21.91 89.7492 22.12 89.9892 22.38C90.2292 22.62 90.3692 22.92 90.4092 23.28C90.8092 23.32 91.1792 23.49 91.5192 23.79C91.8592 24.09 92.0792 24.37 92.1792 24.63C91.7792 25.59 91.4492 26.52 91.1892 27.42C90.9292 28.32 90.7692 29.14 90.7092 29.88C90.6492 30.58 90.6592 31.05 90.7392 31.29C90.8392 31.51 90.9692 31.59 91.1292 31.53C91.3092 31.47 91.5092 31.31 91.7292 31.05C91.9692 30.79 92.1892 30.52 92.3892 30.24C92.5892 29.98 92.7892 29.69 92.9892 29.37C93.1892 29.05 93.3792 28.75 93.5592 28.47C93.7392 28.17 93.8892 27.91 94.0092 27.69C94.1492 27.45 94.2492 27.28 94.3092 27.18C94.6492 26.54 95.0092 26.13 95.3892 25.95C95.7692 25.77 96.0992 25.74 96.3792 25.86C96.6792 25.98 96.8892 26.21 97.0092 26.55C97.1292 26.87 97.0992 27.23 96.9192 27.63C96.4592 28.41 96.0092 29.19 95.5692 29.97C95.1292 30.75 94.6492 31.51 94.1292 32.25C93.8092 32.69 93.4792 33.11 93.1392 33.51C92.7992 33.89 92.4292 34.23 92.0292 34.53C91.6292 34.81 91.1992 35.04 90.7392 35.22C90.2792 35.38 89.7792 35.46 89.2392 35.46C88.5792 35.46 87.9992 35.27 87.4992 34.89C87.0192 34.51 86.7792 34 86.7792 33.36C86.4392 33.72 86.0492 34.08 85.6092 34.44C85.1892 34.8 84.7392 35.11 84.2592 35.37C83.7992 35.63 83.3092 35.83 82.7892 35.97C82.2892 36.09 81.7892 36.1 81.2892 36C80.3492 35.78 79.6192 35.36 79.0992 34.74C78.5792 34.12 78.2692 33.36 78.1692 32.46C78.1092 31.6 78.2592 30.59 78.6192 29.43C78.9792 28.25 79.5992 26.98 80.4792 25.62C81.0392 24.78 81.6092 24.08 82.1892 23.52C82.7692 22.96 83.3392 22.52 83.8992 22.2C84.4592 21.86 84.9892 21.63 85.4892 21.51C86.0092 21.37 86.4892 21.3 86.9292 21.3ZM105.151 32.82H105.211H105.241H105.151ZM100.591 34.32C100.251 34.64 99.9012 34.93 99.5412 35.19C99.1812 35.45 98.8012 35.67 98.4012 35.85C98.0012 36.01 97.5712 36.11 97.1112 36.15C96.6712 36.19 96.2012 36.14 95.7012 36C94.6412 35.72 93.8912 35.2 93.4512 34.44C93.0112 33.66 92.8412 32.72 92.9412 31.62C93.0012 31.1 93.1312 30.5 93.3312 29.82C93.5312 29.14 93.7812 28.44 94.0812 27.72C94.3612 26.98 94.6612 26.24 94.9812 25.5C95.3212 24.74 95.6512 24.03 95.9712 23.37C96.0912 23.01 96.2212 22.69 96.3612 22.41C96.5212 22.13 96.6812 21.82 96.8412 21.48C96.8812 21.44 97.0212 21.4 97.2612 21.36C97.5012 21.32 97.7912 21.29 98.1312 21.27C98.4912 21.23 98.8712 21.22 99.2712 21.24C99.6712 21.24 100.051 21.27 100.411 21.33C100.771 21.39 101.081 21.48 101.341 21.6C101.621 21.7 101.801 21.84 101.881 22.02C101.721 22.32 101.471 22.77 101.131 23.37C100.791 23.97 100.441 24.63 100.081 25.35C99.7212 26.07 99.3812 26.82 99.0612 27.6C98.7612 28.36 98.5712 29.05 98.4912 29.67C98.3512 30.55 98.3312 31.16 98.4312 31.5C98.5512 31.84 98.7412 31.99 99.0012 31.95C99.2612 31.91 99.5712 31.71 99.9312 31.35C100.291 30.99 100.651 30.55 101.011 30.03C101.671 28.69 102.221 27.58 102.661 26.7C103.101 25.8 103.481 25.04 103.801 24.42C104.121 23.8 104.381 23.29 104.581 22.89C104.801 22.47 105.021 22.07 105.241 21.69C105.541 21.59 105.901 21.51 106.321 21.45C106.761 21.39 107.201 21.38 107.641 21.42C108.081 21.44 108.491 21.51 108.871 21.63C109.271 21.73 109.561 21.9 109.741 22.14L109.051 23.73C108.771 24.39 108.461 25.11 108.121 25.89C107.801 26.67 107.461 27.46 107.101 28.26C106.761 29.06 106.431 29.85 106.111 30.63C105.791 31.39 105.501 32.09 105.241 32.73C105.441 32.57 105.641 32.37 105.841 32.13C106.061 31.89 106.311 31.56 106.591 31.14C106.871 30.72 107.221 30.18 107.641 29.52C108.061 28.86 108.581 28.02 109.201 27C109.521 26.46 109.861 26.14 110.221 26.04C110.601 25.94 110.921 25.97 111.181 26.13C111.461 26.27 111.651 26.5 111.751 26.82C111.851 27.12 111.791 27.42 111.571 27.72C111.131 28.52 110.631 29.39 110.071 30.33C109.511 31.25 108.901 32.12 108.241 32.94C107.601 33.76 106.921 34.47 106.201 35.07C105.501 35.67 104.791 36.04 104.071 36.18C103.891 36.92 103.631 37.71 103.291 38.55C102.971 39.39 102.611 40.22 102.211 41.04C101.811 41.86 101.391 42.65 100.951 43.41C100.531 44.17 100.131 44.84 99.7512 45.42C99.4712 45.86 99.1012 46.18 98.6412 46.38C98.1812 46.58 97.7112 46.67 97.2312 46.65C96.7712 46.63 96.3312 46.5 95.9112 46.26C95.4912 46.04 95.1812 45.7 94.9812 45.24C94.8012 44.72 94.7612 44.19 94.8612 43.65C94.9412 43.13 95.1212 42.6 95.4012 42.06C95.6812 41.54 96.0212 41.01 96.4212 40.47C96.8412 39.95 97.2712 39.43 97.7112 38.91C98.0312 38.53 98.3312 38.16 98.6112 37.8C98.9112 37.46 99.1812 37.11 99.4212 36.75C99.6812 36.39 99.9112 36.01 100.111 35.61C100.311 35.21 100.471 34.78 100.591 34.32Z" fill="#EE833E"/>
<path d="M84.4999 40.5C59.6999 56.9 36.4999 48.3333 27.9999 42C24.7999 46.4 28.8637 52 31.9999 53C59.5999 61.8 78.4999 51 84.4999 44.5C85.6999 42.1 84.9999 40.8333 84.4999 40.5Z" fill="#EE833E"/>
</svg>
